# xmcd CD database file
#
# Track frame offsets:
#	150
#	12637
#	37130
#	56132
#	79530
#	93132
#	102530
#	125872
#	144977
#	164265
#
# Disc length: 2519 seconds
#
# Revision: 2
# Processed by: cddbd v1.5.1PL0 Copyright (c) Steve Scherf et al.
# Submitted via: CDex 1.51
#
DISCID=8809d50a
DTITLE=The Graham Bond Organisation - Person to Person Blues [Live At Klooks Kleek?] [DTK]
DYEAR=2000
DGENRE=Blues
TTITLE0=Wade In The Water
TTITLE1=Big Boss Man
TTITLE2=Early In The Morning
TTITLE3=Person To Person Blues
TTITLE4=Spanish Blues
TTITLE5=Intoduction By Dick Jordan
TTITLE6=The First Time I Met The Blues
TTITLE7=Stormy Monday
TTITLE8=Train Time
TTITLE9=What'd I Say
EXTD=YEAR: 2000
EXTT0=
EXTT1=
EXTT2=
EXTT3=
EXTT4=
EXTT5=
EXTT6=
EXTT7=
EXTT8=
EXTT9=
PLAYORDER=
